<svg version="1.1" id="Layer_1" xmlns="http://www.w3.org/2000/svg" xmlns:xlink="http://www.w3.org/1999/xlink" x="0px" y="0px"
	 width="100%" viewBox="0 0 400 416" enable-background="new 0 0 400 416" xml:space="preserve">
<path fill="#000000" opacity="1.000000" stroke="none" 
	d="
M401.000000,62.583336 
	C396.286621,62.596664 393.350861,65.702667 390.312103,68.503967 
	C375.857574,81.828934 364.450439,97.585503 354.056946,114.139359 
	C343.164948,131.487259 332.209869,148.796631 321.470062,166.238403 
	C317.938660,171.973495 315.660675,178.297943 314.023529,185.281189 
	C318.748474,185.450470 321.060394,182.957321 323.110840,180.459473 
	C332.107422,169.499969 339.738129,157.558563 347.494934,145.727081 
	C364.207764,120.234978 382.528229,95.890747 400.671265,71.092125 
	C401.000000,72.714355 401.000000,74.428719 401.000000,76.571533 
	C392.384491,86.331665 386.275543,97.540848 378.395203,107.388840 
	C359.434875,131.083405 345.160339,158.038254 326.235321,181.724686 
	C318.842590,190.977325 309.992554,198.873352 301.471405,207.058182 
	C300.290314,208.192703 299.050903,209.352753 297.310364,208.753510 
	C295.904144,207.001358 297.066986,205.701813 297.705933,204.442856 
	C319.053864,162.380737 342.814850,121.756287 371.138062,83.979912 
	C378.971619,73.531853 387.324249,63.076981 400.669434,58.112793 
	C401.000000,59.388889 401.000000,60.777779 401.000000,62.583336 
M313.113647,191.214264 
	C314.437073,189.766800 313.681793,188.931076 312.297241,188.157471 
	C310.946503,187.402771 310.072968,187.935684 309.439728,189.082275 
	C307.543884,192.515106 305.693878,195.973267 303.388550,200.228928 
	C307.557251,197.580170 309.830994,194.302429 313.113647,191.214264 
z"/>
<path fill="#000000" opacity="1.000000" stroke="none" 
	d="
M83.785179,127.652466 
	C78.513283,145.165344 73.372375,162.294449 67.887650,180.569122 
	C73.115425,177.100906 76.846779,173.729630 81.477165,171.807816 
	C84.889961,170.391373 88.348145,169.330627 92.129440,169.682022 
	C94.972778,169.946243 97.258118,170.902344 98.510483,173.687286 
	C99.739304,176.419861 98.573578,178.626221 96.901817,180.552658 
	C90.135231,188.350082 81.334656,193.070679 71.657509,195.949081 
	C67.605148,197.154419 64.880524,198.895859 63.242908,202.758362 
	C62.277901,205.034470 60.860249,207.149948 59.438774,209.193390 
	C57.600147,211.836502 54.982590,212.824005 52.029533,211.313095 
	C49.054485,209.790939 50.571777,207.215378 51.242706,205.151138 
	C60.246410,177.449402 69.327896,149.772949 78.381905,122.087547 
	C79.666641,118.159081 80.908211,114.216499 82.449905,109.406418 
	C75.886314,110.115250 70.133980,111.142868 64.499802,112.771469 
	C62.941750,113.221848 62.506222,114.819069 62.239136,116.383904 
	C57.027931,146.916077 48.364418,176.684967 42.183712,207.003555 
	C40.788906,213.845581 41.485584,214.712753 48.454159,213.472076 
	C54.221542,212.445251 59.926746,212.562469 66.146133,212.864975 
	C61.371170,217.498352 25.445721,222.471725 21.681082,219.200607 
	C24.097673,216.431488 27.592865,216.350266 30.696016,215.805771 
	C33.461884,215.320435 34.915649,214.093628 35.298561,211.456345 
	C39.841610,180.166580 46.765388,149.341476 53.405693,118.460419 
	C53.499531,118.024033 53.251690,117.514168 53.130211,116.860420 
	C49.947712,115.530388 46.988583,117.830978 43.882771,117.491745 
	C42.429802,117.333054 40.606815,117.916756 40.104046,116.015587 
	C39.570099,113.996506 41.506699,113.608139 42.804550,113.057320 
	C54.126122,108.252296 65.889534,105.344650 78.246284,105.788536 
	C82.443390,105.939308 84.884766,104.661255 85.858734,100.536583 
	C86.198463,99.097855 86.925552,97.738625 87.566277,96.385971 
	C88.371231,94.686600 89.350792,92.826614 91.630661,93.693611 
	C93.976601,94.585739 92.677597,96.534813 92.270302,97.989029 
	C89.533073,107.762215 86.710846,117.511589 83.785179,127.652466 
M73.920563,186.062469 
	C73.348808,186.845856 72.610741,187.566772 72.916000,188.691132 
	C81.152657,186.707825 88.920837,180.313675 89.214668,174.918152 
	C83.091789,177.064484 78.577560,181.123367 73.920563,186.062469 
z"/>
<path fill="#000000" opacity="1.000000" stroke="none" 
	d="
M163.689789,211.712753 
	C165.583267,209.577713 167.161728,207.625595 168.953033,205.893631 
	C170.847366,204.062057 173.185562,203.075134 175.803223,204.139603 
	C178.544235,205.254288 178.461121,207.832748 178.179916,210.133850 
	C177.151077,218.552780 175.922119,226.947006 174.831512,235.358704 
	C173.634674,244.589981 172.483643,253.827423 171.377625,263.069977 
	C171.225250,264.343201 170.962448,265.739655 172.137634,267.108795 
	C178.468002,266.874756 185.138565,263.844696 191.540756,267.749542 
	C187.003418,270.738861 181.846161,271.296753 176.977509,272.188751 
	C171.365158,273.216980 169.728500,276.318176 169.337967,281.337341 
	C168.137619,296.764496 166.500763,312.162415 165.584595,327.604370 
	C165.254364,333.170563 164.540237,339.303619 169.513550,343.751556 
	C165.569458,347.855804 161.338776,347.114777 159.940018,341.669128 
	C157.862167,333.579773 157.702850,325.228760 158.158691,316.889374 
	C158.785156,305.428436 159.062225,293.944366 160.628799,282.547943 
	C160.824448,281.124725 160.512650,279.631714 160.407501,277.628784 
	C154.440765,278.711945 149.302109,280.994110 144.087708,282.946045 
	C124.495644,290.279938 129.323410,285.376587 121.299866,305.168396 
	C119.300102,310.101227 117.528931,315.126770 115.655624,320.110840 
	C115.134766,321.496613 114.834251,323.278839 112.831459,322.985077 
	C110.578644,322.654724 110.686386,320.731110 110.787392,319.068756 
	C111.062653,314.538300 112.515198,310.275635 113.866432,305.987183 
	C115.092224,302.096832 117.049149,298.392639 117.270760,293.991241 
	C113.717079,293.967072 111.021652,295.827271 108.053459,296.702118 
	C105.779892,297.372223 103.454132,297.653839 102.419968,295.239899 
	C101.441566,292.956085 103.901718,292.175354 105.370743,291.322357 
	C108.679214,289.401337 111.962410,287.276855 115.529396,285.998108 
	C120.994316,284.038910 124.170334,280.352020 126.463295,275.184509 
	C136.421524,252.742249 147.938492,231.184677 163.689789,211.712753 
M166.224594,238.858841 
	C167.409256,231.446686 168.593918,224.034546 169.778580,216.622406 
	C154.825348,235.403091 143.035217,255.685730 133.034286,278.317322 
	C142.656418,275.438171 151.216934,272.939819 159.729187,270.286652 
	C161.940720,269.597351 162.333679,267.455078 162.603470,265.416992 
	C163.738052,256.846283 164.876541,248.276093 166.224594,238.858841 
z"/>
<path fill="#000000" opacity="1.000000" stroke="none" 
	d="
M198.610977,278.550079 
	C196.941696,285.913300 194.885681,292.805237 195.227600,300.072754 
	C195.528366,306.465820 198.219803,308.155762 203.918198,305.501556 
	C208.572723,303.333557 212.104401,299.848083 215.238510,295.890747 
	C216.555161,294.228271 217.728485,292.268646 220.689499,293.203583 
	C221.249466,296.265686 219.275665,298.266235 217.842056,300.334137 
	C212.305191,308.320923 201.661407,312.705017 194.077866,310.484436 
	C189.247650,309.070038 186.992523,305.943604 186.698257,301.049530 
	C186.220444,293.103149 187.823349,285.458893 190.121475,277.959259 
	C195.639404,259.952148 202.260468,242.339767 209.890457,225.126678 
	C211.967255,220.441467 214.184341,216.247589 207.782227,213.252411 
	C206.999619,212.886261 206.802261,211.959808 207.214447,210.774094 
	C210.152267,209.559799 211.578796,213.105576 214.438950,213.307220 
	C216.572815,211.862366 217.021820,209.064972 218.392807,206.887848 
	C219.719772,204.780624 220.970398,202.613586 222.453735,200.621094 
	C223.302444,199.481064 224.763840,199.130035 226.078262,199.777893 
	C227.714691,200.584488 227.169220,202.024612 226.630478,203.249298 
	C224.887436,207.211655 223.104691,211.157242 221.279144,215.082291 
	C220.453156,216.858246 219.927231,218.543915 221.715714,220.043610 
	C229.623306,226.674301 236.377853,234.620544 244.979782,240.456299 
	C247.361145,242.071854 249.781082,243.605423 252.809540,241.901749 
	C255.784225,240.228333 256.724304,237.549759 256.682892,234.341187 
	C256.663544,232.842224 256.715210,231.342270 256.692444,229.843414 
	C256.642426,226.553513 258.362915,224.933670 261.531067,224.730713 
	C263.025330,224.635010 264.527649,224.646957 266.026428,224.643082 
	C272.504913,224.626358 272.511292,224.630203 271.935730,218.327362 
	C271.807800,216.926285 272.180939,215.679443 273.016937,214.581314 
	C276.156006,210.457993 288.289459,209.395569 292.707489,212.877914 
	C291.909912,214.779510 290.228638,214.067368 288.851349,214.147736 
	C285.865784,214.321991 282.815735,214.115753 279.905548,214.665741 
	C276.615479,215.287521 274.495911,216.824310 276.261444,220.994781 
	C278.336700,225.896881 277.286011,227.133865 272.049957,227.716888 
	C268.464691,228.116074 264.329620,225.889313 261.394836,228.600525 
	C258.734436,231.058289 260.242157,235.236984 259.226227,238.557129 
	C257.267151,244.959625 251.683929,247.570221 245.513168,244.520462 
	C238.362915,240.986649 233.267899,234.856323 227.312103,229.812851 
	C224.566818,227.488098 222.407547,224.423538 218.478882,222.614365 
	C210.844299,240.953827 204.524414,259.459839 198.610977,278.550079 
z"/>
<path fill="#000000" opacity="1.000000" stroke="none" 
	d="
M169.170135,185.109970 
	C170.393143,184.016678 171.158188,182.755371 172.761642,183.160339 
	C173.328491,188.771820 164.435852,197.305099 155.445450,199.816360 
	C147.152130,202.132935 140.952225,198.952087 136.860764,190.231705 
	C134.637741,190.399567 133.653671,192.408752 132.081955,193.528015 
	C129.648315,195.261017 127.566963,197.510529 124.719307,198.632446 
	C119.542755,200.671921 116.654930,198.619827 117.810440,193.185745 
	C119.043198,187.388412 121.084297,181.762955 122.868362,175.738770 
	C119.003517,177.279480 116.812019,180.288544 114.176498,182.728088 
	C111.976761,184.764221 109.909920,186.944458 107.700089,188.969040 
	C105.503281,190.981674 102.742004,192.517944 99.996552,190.981934 
	C96.889511,189.243607 98.853531,186.212875 99.395309,183.770584 
	C100.042999,180.850876 100.935211,177.978943 101.846703,175.126328 
	C102.523941,173.006805 103.956474,171.566193 106.332191,172.204285 
	C108.649986,172.826813 108.563950,174.850922 108.267296,176.725708 
	C107.988037,178.490540 107.548340,180.229965 106.989540,182.880203 
	C110.773613,179.343918 113.841270,176.342331 117.064774,173.518692 
	C118.808495,171.991302 120.723396,170.601929 122.733315,169.451096 
	C124.986862,168.160782 127.625549,167.671356 129.838409,169.270508 
	C132.189316,170.969452 131.218689,173.461197 130.449417,175.680359 
	C128.509659,181.276138 126.522087,186.855362 124.954605,192.670181 
	C130.891388,188.510971 138.136063,186.041443 139.988327,177.697922 
	C140.771683,174.169250 143.411865,171.189926 146.454239,169.014526 
	C149.979294,166.494049 153.794006,166.472641 156.985764,169.440994 
	C160.005386,172.249237 158.856262,175.514786 156.891388,178.506332 
	C154.754532,181.759705 152.005264,184.434204 148.632004,186.350494 
	C146.233856,187.712814 144.416901,189.109055 145.798706,192.217636 
	C147.049820,195.032242 149.125778,196.291443 152.192932,195.706726 
	C158.159683,194.569214 162.744766,190.980423 167.190552,187.166763 
	C167.819550,186.627197 168.347809,185.970215 169.170135,185.109970 
z"/>
<path fill="#000000" opacity="1.000000" stroke="none" 
	d="
M234.481689,276.273163 
	C233.082916,282.015289 229.970978,286.998352 230.708755,293.681976 
	C242.620010,289.740601 249.571671,280.698608 256.557251,272.129181 
	C258.598480,273.444794 258.227936,274.666504 257.715302,275.652466 
	C252.300217,286.067444 244.607605,294.149017 233.115097,297.542542 
	C225.010178,299.935822 220.890472,295.640533 222.755295,287.381348 
	C223.860641,282.485870 225.848511,277.913513 228.214020,273.492615 
	C229.440613,271.200256 231.058777,269.561493 233.765503,270.719818 
	C236.440643,271.864624 235.026657,274.038605 234.481689,276.273163 
z"/>
<path fill="#000000" opacity="1.000000" stroke="none" 
	d="
M238.968704,255.368195 
	C240.265320,259.092712 238.350830,262.739410 235.235962,263.163513 
	C233.457870,263.405579 231.887909,262.901825 231.146652,261.172577 
	C230.343079,259.297882 230.841934,257.524841 232.561188,256.431580 
	C234.379257,255.275467 236.429321,254.681824 238.968704,255.368195 
z"/>
</svg>